<?xml version="1.0"?>
    
<!--********* Copyright (c) 2024 Pareto Softare, LLC DBA Simplemaps.com ***************************************
************* Free for Commercial Use, full terms at  https://simplemaps.com/resources/svg-license ************
************* Attribution is appreciated! https://simplemaps.com *******************************************-->

<svg baseprofile="tiny" fill="#6f9c76" height="888" stroke="#ffffff" stroke-linecap="round" stroke-linejoin="round" stroke-width=".5" version="1.2" viewbox="0 0 1000 888" width="1000" xmlns="http://www.w3.org/2000/svg">
 <g id="features">
  <path d="M804.6 227.8l-31-4.9-9.3-3.4-8.7-4.6-15.1-5.8-19-10.2-47.5-8.5-20.6 1-0.5-0.8-0.7-1.1-0.6-1.9-0.9-17.5-1.4-8-4-10.2-6.8-11-0.2-0.3-0.2-1.2-0.3-1.8-0.1-7.7-3.1-30-0.2-7.6 0-0.1 0.2 0.1 3.3 0.1 3.1-0.4 5.5-1.5 6.6-3.2 1.3-1 3.1-1.6 0.8-0.6 0.5 0 0 0.6-2.3 1-4.2 3.1-2.4 0.7-4.1 1.9-6.4 1.6 3.6 0 0 0.6-1 0.6 2.2 0 0.9-0.3 0.5-0.9 0.4 0 0.1 0.6 0.2 0 0.4 0 0.4 0 4.6-2.9 3.8-1.2 0.8-0.7 0.5 0 0.3 0.5 1 0.3-0.2 0.4-0.6 0.1 0 0.6 0.8-0.3 1.8-0.9 0-0.7-2.1 0 0-0.5 1-0.4 1.3 0.3 1.1 0.8 0.7 1.1 0.2 0.5 0.2 0.8 0.1 0.5-1 0 2.4 0.9 1.2-0.1 1-0.8 0-0.7-0.7-0.4-0.4-0.1 0-0.6 2.9-0.8 0.7-0.5-0.3-0.6 0.1-0.6 0.4-0.8 0.3-0.9-0.5 0-0.4 0.6-1.6 1.2-0.2 0.3-0.3 0.2 0 0.3 0.5 0.3-1 0.3-1.7-0.1-1.7-0.2-1.2-0.5 2.2-0.2 1.3-1.4 0.9-1.7 1.2-1.5 0.9-0.4 1.8-0.4 0.9-0.4 1.4-1.4 0.9-0.4 1.3 0 0 0.6-2.1 0 0 0.6 0.9 0.6 2.7 3.6 0.8 1.5-0.3 0.4-1 0.3-1 0.7-0.1-0.2 0-0.2-0.1-0.2-0.4 0.1 0 0.5 1.3 0.9 0.6 1.1 0 1.4-0.8 1.4 2.6-1 1.4-0.4 1 0.2 0.5-0.1 0.4 0 0.6 0.1 0-0.5-1-0.7-0.5 0 0 0.7-0.4 0 0-0.7 3.9-1.5 1.1-0.9 0.5 0-0.5 0.7 0.5 0.6 0.6-0.5 0.6-0.1 0.5 0.4 0.3 0.8 0.6 0 0.1-0.8-0.1-0.8-0.1-0.2 1.1-0.1-0.7-0.3-0.7 0.1-0.7-0.1-0.9-0.2 8.1-0.6-0.6-1.6 0.9-0.3 1.2-0.1 0-1.6 0.8 0.4 0.3 0.2 0.5 0 1-0.2 2.9 1.5 1.4 0.5 5.5 0.5 1.4 0.7 0-0.6 1.7 0.5 2.5-0.2 15.4-4 14.3-5.7 11.3-7.4 0.1 0 1.8 3.3 0.5 1.4 1.3 4.2 0.8 2.4 2.9 9.1 2.3 7.4 2.9 7.5 3.8 10.1 4.6 12.1 1.6 6.9 0.2 3.6 0.4 1.5 1.2 1.6 0.7 1 0 1.2-0.7 2.6-0.1 1.5 0.1 1 0.5 0.8 4.1 3.6 0.8 1.2 2.5 7.1 4.4 12.7 2.9 8.3 0.2 0.5 0.1 0.5 0.1 0.5-0.1 0.6 0.5 4.6 3.3 9 2.9 8.1 1.9 8.8-0.1 5.9 0.5 2.1 1.7 3.5 0.6 1.2-0.1 0.1z m-141.9-137.3l-0.3-0.4-0.4 0 0.5-0.4 0.5 0.1 0.3 0.5 0.2 0.9-0.8-0.7z m29.5-9.4l2.3 0.5 2 1 3.2 2.7-1.6-1.2-11.6-5-2.2-0.4 2.4 0.1 3.8 1.8 1.7 0.5z m-22.1-3.3l2-1.1 11.7 1.4-0.5 0.4-0.9 0-2.3-0.4-2.2-0.3-2.2-0.4-2.6 0.7-1.2-0.2-2 0.7-8.9 4.8-1.6 1.3 0.9-1.3 1.7-0.8 1.4-0.8 1-0.6 1-0.7 3.8-1.8 0.9-0.9z" id="EGSIN" name="Shamal Sina'">
  </path>
  <path d="M538.8 839.2l-0.1 0-0.1-0.2-0.5-0.9-0.7-0.8-3.3-2.4-0.8-0.8-0.6-0.7-0.4-0.9-0.2-0.9 0.3-1.1 0.5-1.2 1.1-1.7 1-1 1-0.8 1.9-0.9 1.8-0.5 1.9-0.3 3.8-0.2 1.7-0.3 1.9-0.6 1.8-0.9 1.2-0.7 2.6-2 5.2-6.7 0.6-1.3 0.5-1.3 0.6-2.5 0-0.6-0.4-4.4-1.3-4.7-0.3-1.8 0-0.8 0.3-1.2 0.6-1.3 1.3-2.1 1.1-1.1 1.1-0.9 0.9-0.5 1.1-0.3 0.9-0.3 0.9-0.1 1.7 0.1 6.4 1.7 0.8 0.1 0.8-0.1 23.7-11.3 2.1-0.7 1-0.1 0.9 0.1 0.9 0.3 1.6 1.1 3.4 2.8 0.9 0.4 1 0.2 1 0 2.1-0.3 0.8-0.1 0.9 0.2 0.8 0.5 0.6 0.7 1 1.6 0.6 0.6 0.7 0.3 0.9-0.4 0.7-0.8 1.5-3.1 0.5-0.8 0.6-0.8 0.8-1.5 0.7-2.2 0.9-4.6 0.8-2.2 0.7-1.5 0.7-0.9 0.3-0.5 0.6-1.5 2.3-7.3 3.6-8.1 1.9-2.6 6.5-7 0.7-1.1 0.4-1.1 0.3-1.5-0.1-1.3-0.5-1.5-0.7-0.4-0.9-0.1-10.1 1.5-7.4-0.3-3-0.6-0.9-0.3-0.8-0.5-0.6-0.9-0.3-1.2 0.4-2 0.4-1.1 0.6-1.5 0.6-2.1 1-6.2 1-3.5 0.4-0.9 1.8-2.6 1.4-1.6 1.6-1.6 0.9-0.6 0.9-0.5 0.8-0.3 1.9-0.5 9.2-1.3 0.9-0.3 0.8-0.6 0.5-0.9 0-1-0.6-1.5-0.7-0.9-0.9-0.5-1.7-0.9-3.3-1.9-0.8-0.7-0.7-0.8-0.4-1.2-0.1-1.3 0.2-2.4 0.5-2.5 0.5-1 0.2-0.3 0.4-0.5 0.6-0.6 0.8-0.4 0.9-0.3 1.8-0.3 4.8 0.2 1.8-0.3 0.9-0.3 0.9-0.4 0.8-0.5 0.8-0.8 0.6-0.9 0.3-0.6 0.7-0.7 0.1-0.8 0.8-2.9 0-1.5-1-3.4-0.2-1.1 0.2-2.6 0.1-0.9 0.1-1.9 0.5-4.1 0-1-0.6-5.7 0.1-4.4 0.3-1.8 0-1.1-0.1-0.2 0.4-3.3 2.7-6.6 0.8-3.1-0.3-1.2 0-0.4-0.6-3.1-1.5-4.3-3.1-6.7-0.5-1.4-0.3-1.2-0.8-8.4-1.1-3.1-0.9-1.7-1.3-1.9-1.6-1.9-2.6-2-6-3.5 1.3-1.1 0.6-0.4 0.7-0.5 0.4-0.8 0.2-1.1 0-4.4 0.6-1.9 15.1 11.6 2.8 3.6 2.5 4.4 1 2.4 0.6 2.4 0.6 4.9 0.2 11 0.5 2.9 0.4 1.2 8 16.8 0.1 0.7-0.1 1.5-0.5 2-0.3 0.8-0.9 1.8-1.1 1.7-6.1 8.1-0.7 1.5-1.6 6.4-0.6 5.6 2.1 13.9 0.7 1.9 1.7 3.2 2 5.6 0.7 1.4 1.2 1.6 1.4 1.3 1.5 1 0.8 0.7 0.9 1 0.8 1.8 0.3 1.2 0.1 1.1-0.1 1.2 0 1.5 0.5 4.3-0.1 1.4-0.3 0.8-1.6 2.5-0.2 1.3 0.1 2.1 1.6 7.6 0.5 1.2 2.1 3.3 0.8 1.9 0.3 1.2 0.1 1.2-0.1 0.9-0.6 2-2.7 6.9-0.4 0.8-0.5 0.7-2.2 1.9-0.8 0.8-0.5 0.9-1 2.8-0.4 0.8-0.6 0.8-1.4 1.6-0.5 1.2 0.2 1 0.5 0.8 0.8 0.7 5.1 3.2 4.4 1.6 0.9 0.5 0.7 0.6 0.6 0.8 1 1.8 0.7 0.8 1.4 1.3 0.6 0.8 0.5 0.9 3.1 10.5 0.2 2.1-0.3 0.9-0.6 0.4-0.8 0-0.8-0.3-0.7-0.3-4.9-3.6-6-6.2-1.7-1.1-1.7-0.6-1.9-0.2-6.1 1-0.7 0-0.8-0.1-0.8-0.2-0.9-0.4-1.7-1.4-3.3-3.5-0.8-0.7-0.9-0.6-0.8-0.2-0.7 0.1-0.6 0.6-0.4 0.8-0.8 2.4-0.5 0.7-1.5 1.5-0.5 1.1-0.1 1.1 0.5 3.5-0.1 2.3-0.3 1.5-0.4 1.1-1 1.6-1.9 2.5-9.7 8.8-2.3 2.6-2.8 2.5-1.3 0.9-1.5 0.7-3.3 1.1-3.6 0.6-4.1-0.1-1-0.2-1.9-0.6-1.8-0.8-0.8-0.6-0.7-0.5-3.1-3.6-3.4-2.8-0.8-0.5-0.9-0.3-0.8-0.2-0.8 0.3-0.7 0.6-0.6 0.8-0.8 1.7-4.8 13.7-1.2 2.1-1.4 1.7-1 1.1-3 2.2-0.8 0.5-0.9 0.3-0.9 0.2-2.6 0-0.9 0.2-1 0.4-0.8 0.7-0.7 0.9-1 1.8-1.2 1.6-0.9 0.7-15.4 7.2-1.6 1-1.7 1.3-1.7 2-2.1 4 0 0.1-4.4 0 2.3-6.8 1.6-4.9 0.4-0.3 1.6-3-1.6-1.1-0.7-1.5-0.9-0.6-1 0.8-1.3-0.7-1.4-0.2-1.5 0.3-1.4 0.7-1.9 2.1-3.3 6.9z" id="EGASN" name="Aswan">
  </path>
  <path d="M552.3 847.5l0-0.1 2.1-4 1.7-2 1.7-1.3 1.6-1 15.4-7.2 0.9-0.7 1.2-1.6 1-1.8 0.7-0.9 0.8-0.7 1-0.4 0.9-0.2 2.6 0 0.9-0.2 0.9-0.3 0.8-0.5 3-2.2 1-1.1 1.4-1.7 1.2-2.1 4.8-13.7 0.8-1.7 0.6-0.8 0.7-0.6 0.8-0.3 0.8 0.2 0.9 0.3 0.8 0.5 3.4 2.8 3.1 3.6 0.7 0.5 0.8 0.6 1.8 0.8 1.9 0.6 1 0.2 4.1 0.1 3.6-0.6 3.3-1.1 1.5-0.7 1.3-0.9 2.8-2.5 2.3-2.6 9.7-8.8 1.9-2.5 1-1.6 0.4-1.1 0.3-1.5 0.1-2.3-0.5-3.5 0.1-1.1 0.5-1.1 1.5-1.5 0.5-0.7 0.8-2.4 0.4-0.8 0.6-0.6 0.7-0.1 0.8 0.2 0.9 0.6 0.8 0.7 3.3 3.5 1.7 1.4 0.9 0.4 0.8 0.2 0.8 0.1 0.7 0 6.1-1 1.9 0.2 1.7 0.6 1.7 1.1 6 6.2 4.9 3.6 0.7 0.3 0.8 0.3 0.8 0 0.6-0.4 0.3-0.9-0.2-2.1-3.1-10.5-0.5-0.9-0.6-0.8-1.4-1.3-0.7-0.8-1-1.8-0.6-0.8-0.7-0.6-0.9-0.5-4.4-1.6-5.1-3.2-0.8-0.7-0.5-0.8-0.2-1 0.5-1.2 1.4-1.6 0.6-0.8 0.4-0.8 1-2.8 0.5-0.9 0.8-0.8 2.2-1.9 0.5-0.7 0.4-0.8 2.7-6.9 0.6-2 0.1-0.9-0.1-1.2-0.3-1.2-0.8-1.9-2.1-3.3-0.5-1.2-1.6-7.6-0.1-2.1 0.2-1.3 1.6-2.5 0.3-0.8 0.1-1.4-0.5-4.3 0-1.5 0.1-1.2-0.1-1.1-0.3-1.2-0.8-1.8-0.9-1-0.8-0.7-1.5-1-1.4-1.3-1.2-1.6-0.7-1.4-2-5.6-1.7-3.2-0.7-1.9-2.1-13.9 0.6-5.6 1.6-6.4 0.7-1.5 6.1-8.1 1.1-1.7 0.9-1.8 0.3-0.8 0.5-2 0.1-1.5-0.1-0.7-8-16.8-0.4-1.2-0.5-2.9-0.2-11-0.6-4.9-0.6-2.4-1-2.4-2.5-4.4-2.8-3.6-15.1-11.6-2.4-2.2-0.7-0.9-0.9-1.7-0.8-2.4-1.3-6.1-0.2-4.4 0.2-1.2 0.9-2.7 0.8-1.7 1.1-1.6 4.9-5.5 7.2-6.5 1.6-1.9 1.4-1.9 3.8-7.9 0.7-2.2 0.4-2.2 0.1-2-0.1-2.9-0.8-6.1-1-3.9-0.8-1.9-1.1-1.9-2.9-3.9-2.6-2.4-1.8-1.3-1.4-0.8-5.8-1.7-4.8-0.3-2.1 0.2-3.9 0.7-15 7.3-2.3 0.5-7.9-10-2-3.8-0.7-0.9-0.7-1-1.2-0.8-0.9-0.3-4.9-1.1-2.2-0.9-1.9-1-1.4-0.9-1-1.2-1.2-1.5-1.8-2.7-1.1-2.3-0.2-0.9-0.4-3.7-0.4-1.3-0.7-1.5-2-2.7-1.7-3-1.2-2.7-3.3-3.2-12.5-8.8-7.9-16.7-1.7-2.9-1.1-1.3-4.7-4.8-3-2.6-1.8-1-0.5-0.5-0.5-0.8-0.6-1.2-1.2-3.4-0.7-1.2-0.9-1.2-1.6-1.5-1.2-0.8-1-0.5-4.7-1.5-7.6-3.2-6.5-3.8-0.7-0.7-0.7-0.8-0.5-1-0.5-1.1-0.7-2.3-0.3-1.2-0.1-2.4 0.3-7.5 1.3-8 0.1-1.3-0.1-2-0.3-2.6-0.4-1.6-1.7-4.5-0.4-1.9-0.6-8-0.4-2.3-1.2-3.3-4-7.9-0.3-1-0.2-1-0.3-3.6-0.8-3.9-0.1-0.9 0.2-1.5 0.4-1.9 2.2-5.6 3.6-6.3 0.4-0.9 0.4-1.8 2.4-20.7 0.1-1.7 0.6-2.5 1.4-3.9 1.5-3 5-6.7 4.3-7 2.1-2.7 3.3-3.6 1.1-1.6 0.9-1.9 1.3-3.5 0.9-1.8 0.5-1.5 0.1-1.2-0.2-3.4 0.3-3.6 5.4 6.7 1.6 1.4 0.5 0.6 0.5 0.7 1 2.4 0.4 0.6 0.8 1.2 3 3.1 1.4 1.1 2.2 1.3 1.5 0.7 27.4 8.3 3.1 1.5 10.2-1.5 6.1 0.3 1.1-0.2 1.6-0.5 22.7-10 2.1-1.3 3.1-1 1.4-0.2 7.2 0 0.2 0.8 0 1.9-0.4 0.7-0.7 0.6-0.4 1-0.8 0.4-0.3 0.7 0.6 0.9-0.4 2.6-0.1 3 0.5 0.9 2.2 2.4 0.8 1 0.3 0.9 0 1.7 0.3 0.9 1.7 1.9 0.3 0.2 3.1 4.3 2.6 0.5 1.7 1.8 1 2.6 3.3 12.6 0.3 1.7 0.8 0.3 3.5 2 1.8 1.8 0.9 1.1 0.7 1.5 0.8 0.3 0.8 0.2 0.7 0.4 0.2 0.5 0.5 1.7 2.2 4.2 0.6 0.6 0.1 0.4-0.2 0.1-0.2-0.1-0.2 0.1 3.3 2.7 1.4 1.8-0.1 1.9 0.6 0.4 0.5 1 0.3 1 0.2 0.8 0.3 0.3 1.7 2.3 3.5 3.8 0.8 1.8 0.8 0.5 0.8 0.3 0.7 0.5 0.3 1.1 0 1 0.2 0.6 1.3 0.2 1.2 0.7 2.5 3 1.6 1-0.1 0.5 0.1 0.7 0 0.5-0.1 0.7 0.5 0.5 0.9 0.2 0.8-0.2 0.6 1.2 1.7 0.8 3.3 0.9 5.3 4.8 1.7 3.6 0.9 0.8 0.5 0.9 1.6 3.9 0.2 1 0 0.5 0.4 0.6 0.3 1.7 0.3 0.6 0 0.5-0.5 0-1 0-0.8-1.8-1.8-1.1-2-0.7-1.5-1-0.5 0-0.5 1.2-0.2 0.8 0.1 0.6 0.6 0.9 1.4 1.5 0.8 1 0.3 1.3 0.5 0.7 1-0.4 1.1-0.5 0.5 0.2-0.1 1.1-0.3 1.2-0.5 1.2-0.7 0.8 0.3 0.3 0.4 0.6 0.3 0.2 1.4 1 0.5 0.2 0.2 0.3 0.7 1.6 0.3 0.4 0 0.6-0.8-0.7-1.7-2.2-0.6 0 0 0.6 0.3 0.5 0.3 0.7-0.6 0-0.4-1.6-1.3 0.1-1.5 1.2-0.8 1.4 1.7 0.9 1.3 1.7 2.1 3.7-0.3 0.6-0.2 0.6-0.1 0.8 0.1 0.9 1.2 1 3.3 1.4 1.1 1.1 0.2 0.7 0.1 1.9 0.2 0.8 0.5 0.7 1.3 1.4 0.5 0.8 0.5 1.7 0.5 3.7 0.5 1.2 2.5 2.3 2.9 2 3.1 1.5 1.5 1.1 1 1.4 0.1 0.9-0.1 3.2-0.2 0.2-0.7 0.6-0.1 0.3 0 0.5 0.4 0.7 0.1 0.5 0 1.9 0.3 1.4 0.8 1.1 1.4 1 1.3 1.2 1.4 1.9 0.5 1.4-1.1-0.2 0 1.4 0.5 1.1 1.5 2.1 0.7 1.3 0.9 2.4 0.7 1.2 0.9 0.7 1.1 0.6 0.9 0.6 0.4 0.9 0.5 2.7 0.1 1.3-0.6 0.9-1.2 0.1-0.8-0.8-0.7-0.3-0.8 1.6-0.2 1.1 0 1.5 0.1 1.5 0.3 1.1 0 2.1-1.4 5.1 0.6 2.4 1.1 0.9 2.4 0.7 1.2 0.7 0.7 1.2 0.8 2.6 2.4 3.2 1.1 2.2 2.5 7.4 1.1 2.2 1.5 2.3 1 2.1 1.8 2.7 6.3 14.5 2.9 4.3 2.8 7.1 5.9 8.2 0.5 1.1 0.8 2.3 5 7.5 2.7 3 0.6 0.8 6.5 12.9 1 3.9 1.8 3.5 0.8 4.2 1.3 2.3 3.2 4.1 0.5 1 0.7 2.4 0.5 1.1 2.2 3.5 0.9 3.5 3.4 6 6.4 11.1 0.3 2.6 0.8 2.3 1.2 1.4 1.5 1.8 0.2 1.5 0.1 3 0.2 1.6 0.4 1.2 0.6 0.9 0.9 0.8 1.2 0.7 1.9 1.8 1.3 2.4 1.7 6.4 0.4 1.1 1.3 2.1 1.4 2.6 1.1 1 0 1.3-1.2 2.5 0 2.2 3.1 1.2 3.7 7 10 7.7 1.6 1.9 2.8 7.9 2 2.2 2.8 4.1 1.3-0.2-0.6-1.1-0.7-1.1 0.8-0.2 1.5 1.6 2.1 0.9 2.7 2.8 1 2.3 0.2 2.4 2.3 1.3 2.3-0.4 1.8 0.5 2 0.6 1.5 0.8 1.2 1.2 1.5 3.7 1.4 1.7-0.5 0.8-1.2-1.6-1.5-1.6-1.1-0.1-2.7 1.3-1.1 0.5-1.5-0.6-1.4-0.5-1.4-0.3-1 0.1-1.1-0.2-1.4-0.5-0.5-0.7-0.8-1-0.8-0.3-0.1-0.4-1.1-0.5-1.6-0.4-0.7 0.5-1 1.9-0.5 2.4 0.5 3.9-0.7 3.4-0.5 2.4 0.6 2.1 1.4 0.3 0.6 1 0 1.2-0.3 0.6 0.1 1.4 0.1 0.9 0.1 1.8-0.3 3.4-0.1 7-0.2 1.3-0.7 2.3-0.2 1.2 0.3 1.2 0.7 1.2 1.6 2.3 1.3 2.4 0.4 1.3 0.3 1.3-0.1 3.8 0.6 3.9 0.7 3 0.5 2.7 3.3 5.7-0.1 0.1-0.1 0.1-0.1 0-16.8 15.3-0.1 0.2-14.1 13.2-12.9-4.2-6-1.8-2.4 5.8 0 0.1-9.3 21.8-0.2 0.3-3.8 8.8-3.5 8.5-4.6 0.8-12.8 2.5-0.2 0-0.6 0-11.4 2.3-6.1 1.3-4.2 0.7-1 3.4-1.1 3.4-1.4 4.7-1.7 4.9 0 0.1 0 0.1-0.3 0-16.3 0-17.3 0-17.3 0-15.8 0-0.9 0-0.7 0-7.6 0-7.6 0-7.6 0-7.6 0-7.7 0-7.6 0-1.5 0-6.1 0-2.6 0 0-0.2-48.4-0.1-3.6 0-0.2 0-15.7 0z m402.2-3.3l0 0.9 0 1-0.5 0.8-0.6 0.8 0 0.1-0.6 0 0.2-0.2 0.3-0.2 0.3-0.3 0.3-0.4 0.2-0.4 0.3-0.5 0-0.7 0-0.6 0.1-0.2 0-0.1z m-4.9-4.5l0 0.1 2.9 1.7 1.8 0.6 0 0.4-0.6 0.1-0.2-0.1-0.4-0.3-0.2-0.3-0.4-0.3-0.3-0.2-0.3 0-0.4 0.1-0.2-0.1-0.6-0.5-0.2 0.2-0.2-0.2-0.2-0.4-0.3-0.6-0.2-0.2z m-7.4-5.1l1.1-0.1 0.2-0.5 0.2-0.5 0.2-0.3 0.6 0.2 1.3 0.8 0.6 0.6 0.4 0.5 1.1 2.5 0.4 0.6-0.2-0.1-0.8-0.3-0.3-0.5-0.2-0.3 0-0.7 0.1 0-0.1-0.5-0.4-0.6-0.8-0.5 0-0.2-0.5-0.6-0.2-0.1-0.3 0.2-0.1 0.1 0.2 0 0.1 0.2-0.2 0.1-0.3 0.1-0.3 0.1-0.5-0.1-0.2 0-0.5 0.2-0.4-0.1-0.2-0.2z m-0.9-0.4l0.4 0.2-0.2 0-0.3 0 0.1-0.2z m-3.3-3l0.6 0.6-0.2 0.2-0.2-0.5-0.2-0.1-0.1 0 0.1-0.2z m-0.5-0.4l0.4 0.3-0.2 0-0.2-0.3z m-1.7-1.6l1.4 1.2-1.1-0.6-0.2-0.4-0.1-0.2z m-10.4-8.1l1.3 0.7-0.2 0-0.7-0.4-0.4-0.3z m-1-0.5l0.6 0.3-0.1 0-0.3-0.1-0.2-0.2z m-2.5-1.1l1 0.5-0.2 0-0.4-0.3-0.4-0.2z m-1.5-0.7l1.3 0.6-0.5 0-0.6-0.5-0.2-0.1z m-0.6-1.3l0.5 1.2-0.2-0.1-0.3-0.7 0-0.4z m-2.1-5.1l-0.2-1 0.4 0 1.6 1.8-0.4 2.3 0.7 2-0.3-0.7-0.3-0.6 0-0.4-0.2-0.5-0.1-0.2 0-0.3 0.2-0.7 0.2-0.7-0.1-0.4-1.4-0.7-0.1 0.1z m-1.6-0.5l0.5 0.3 0.8 0.3-0.2 0.1-0.1 0.1-0.2-0.3-0.6-0.4-0.2-0.1z m-9.1-13.1l1.1 1 1.1 1.9 0.5 3.8 1.2 2.4 2.3 2 1.8 1.4-0.5-0.2-0.6-0.4-1.7-1.3-1-0.9-0.6-0.8-0.4-0.5-0.7-1 0-0.6-0.1-0.9-0.2-0.5 0-0.3 0.2-0.4-0.3-0.4-0.1-0.5 0.1-0.6-0.2-0.3-0.4-0.7-0.3-0.4 0-0.3-0.2-0.2-0.5-0.1-0.2-0.5-0.3-0.4 0-0.3z m-1.9-1.9l1.3 1.3-0.1 0-0.6-0.4-0.6-0.9z m-2.9-1.9l0.1 0 1.1 0.7-0.1 0-0.1 0.1-0.2-0.1-0.2-0.1-0.2-0.3-0.4-0.3-0.2 0 0.2 0z m-16.5-3.6l0.7 0.2 4.2 0.3 6 1.2 3.7 1.2 0 0.1-0.5 0.1-0.4-0.1-0.6-0.4-0.5-0.2-0.2 0.1-0.4-0.1-0.5-0.1-0.3 0-0.4 0.2-0.6 0-0.6 0-0.6-0.3-0.1-0.2-0.5-0.2-0.8-0.1-0.6-0.2-0.3 0.1-0.5-0.1-0.2-0.2-0.4-0.3-0.7 0.1-0.2 0.2 0.2 0 0.2 0.2 0 0.1-0.2 0-0.2 0-0.1-0.1-0.1-0.3-0.3-0.2-0.5-0.2-0.9-0.2-0.3 0.1-0.4-0.1-0.2 0.2 0 0.1-0.6-0.1-0.5-0.1-0.4-0.1-0.2-0.4-0.2-0.2z m-1.8-1l0.4 0.3 0.8 0.5-0.2 0.1-0.1 0.2-0.2 0.1-0.5-0.1-0.1 0.2-0.2 0.1-0.2-0.1 0-0.8 0.1 0 0.3-0.2-0.1-0.3z m-2.9-1.4l0.8 0.3 1.3 0.5 0.3 0.3 0.5 0.3-0.5-0.1-0.2-0.2-0.2-0.1-0.2 0.4 0 0.2 0.1 0.1-0.2 0.7-0.2 0.1-0.4 0.2-0.1-0.1-0.1-0.1 0-0.1 0.1-0.2 0.3-0.3 0.1-0.3 0.1-0.4-0.2-0.3-0.5-0.3-0.6-0.1-0.2-0.1 0-0.3 0-0.1z m-7.5-6.7l0.5 0.8 0.9 1.2 0.7 0.9-0.5-0.3-1.3-1.1-0.4-0.5 0.1-0.6 0-0.4z m-2.4-4l0.3 1.4 0.2 0.7 0.7 0.5-0.5 0-0.2-0.2-0.4-0.3-0.2-0.3-0.3-0.2 0-0.1-0.1-0.3-0.5-0.5-0.2-0.4 0.2-0.3 0.4 0.1 0.4-0.1 0.2 0z m-3.4-5.9l0.8 0 0.9 0.8 0.7 1.1 0.5 1.4 0 0.4-0.3 0.3-0.1-0.3-0.2-0.6 0-0.8-0.2-0.3-0.2-0.6-0.4-0.7-0.7-0.3-0.6-0.2-0.2-0.2z m-0.6 0.2l-0.1-0.2 0.6 0-0.1 0-0.2 0.2-0.2 0z m-4.5-6.5l0.1 1.2-0.1-0.1 0-0.1-0.1-0.7 0.1-0.3z m-2.3-8.5l0.1 0.3 1.5 3 0.6 4.3-0.2-0.3-0.1-0.6-0.2-0.9-0.1-1.1-0.1-1.4-0.3-0.6-0.4-0.6-0.4-0.5-0.3-0.4-0.1-0.6 0-0.6z m-124.9-301.9l1.1 0 0.4 0 1.5 3.2 0.5 1.7 0.1 1.9-1.1-1-0.5-1.1-2-4.7z m3.8-60.2l1.6 0.7 0.5 1.4 0.3 1.5 0.9 1 0 0.5-0.5 0-1-0.2-1.3-1.6-0.5-0.5-1.6-0.5-0.7-0.4-0.7-0.9-0.7-0.5-1.7 0.8-0.7-0.6-0.5-1-0.3-0.9 0.4-0.5 0.5-0.4 0.5-0.1 0.6-0.1 1.7 0.3 0.6 0.3 0.7 0.5 0.6 0.5 0.3 0.3 1 0.4z" id="EGBA" name="Al Bahr al Ahmar">
  </path>
  <path d="M411 96.8l2 58.2 3.5 7.3 48.9 30.4-58 35.6-48.3 49-15 11.4-59.1 15.4-5.5 2.3-3.5 3.9-2.1 3.1-32.2 68.8-173 0.1-1.4 0 0-29.6 0-6.6 0-33.4 0-33.8 0-14.3 0-10.5-0.6-4.9-1.3-4.6-6.1-15-0.8-3-0.1-3.3 0.6-6.2 0-2.1-1-3.5-3.9-6.4-0.5-3.6 1.3-4.5 0.1-1.7-0.4-1.9-6.4-16.1-2.1-3.8-0.6-1.9 0-3.3 1.2-3.1 3.1-5.5 1.2-3 0.7-1.2 2-2.6 2.3-2.3 4.3-6.6 1.5-3 0.7-2.9 0.2-1.7 2.3-6 0.8-4.7 0.9-3.5 1.1-3 0.5-3-1-3.5-3.3-6.9-1-4.5-2.6-5.3-0.5-1.8-1.7-9.3-0.1-7.1-0.7-7.4 0-3.1 0.9-2.8 12.1-10 2.8-7.4 2-3 4.7-3.7-0.1 0.6 0.9 5.8 0.8 2.7 1.4 1.8 1.6 0.5 3.8 0.2 2.8 1.5 1.6 0 3.4-0.5 0.7 0.2 0.9 0.4 0.9 0.2 1.3-0.8 1.9-0.5 2.1-0.2 12.1-3.5 14-4.8 3.3-0.5 7.3 0.4 29.5 8.2 21.4 2.9 1.3 0.7 1.2 0.4 3.7-0.2 1.5 0.1 5.3 2.6 3.1 1 3.4 0 2.7-1 1.3-0.2 1.3 0.9 1 1 0.7 0.3 0.7 0 0.9 0.2 2 1.2 4.7 1.6 5 0.5 1.9 0.6 1.2 0.9 0.5-0.4 0.7-0.4 0.3-0.4 0.9 0.1 4.6-0.1 0.5 0.2 0.6 0.3 0.5 0.6 0 0.4-0.1 0.3 0.1 0.6 0.6 1.1 0.3 0.5 0.4 0.2 0.2 0.2 0.1 1.3 0.2 0.6 0.6 0.9 0.7 2.6 0.8 1.2 1.7 1.6 2.2 1.2 2.3 0.8 4.7 0.7 1.9 0.8 1.6 0.3 1.7-0.9 3.7 2 4.4-0.8 8.7-4.2 1.3-0.2 0.7 0.6 0.4 1.2 0.1 1.7 0.2 0.7 1.3 3.2 0.3 2.8 0.2 0.8 2.3 1.3 3.6 0.5 13.3 0 0.9 0.2 0.7 0.5 0.6 0.6 0.6 0.4 0.9 0.3 2.2-0.3 1.7 0.2 3.2 0.8 1.4 0.2 1.5-0.4 3.3-1.6 1.7-0.3 1.4 0.2 1.3 0.7 1.2 0.8 0.9 0.9 0.6 0.4 2.7-0.1 1 0.2 0.8 0.4 1.2 0.6 13.3 4.8 2.6 1.5 1.5 0.6 1.8 0.2 0.4 0.5 0.5 2.4 0.3 0.8 0.5 0.3 1.4 0.5 12.9 6.8 12-0.5 2.3-0.5 10.1-4.9 11-5.3 4-3 3.1-1.6z" id="EGMT" name="Matruh">
  </path>
  <path d="M67.3 382.3l1.4 0 173-0.1 98.9 0 151.5 0-0.9 1.8-0.3 1.1-0.3 3.2 0.2 2.3 0.8 2.7 6.9 14.8 1.3 1.9 1.2 1.4 9.8 9.3 3.7 2.2 6.8 2.8 1.2 0.8 1.4 1.2 3.5 3.8 0.9 1.3 9.4 19 10.3 12.8 7.1 6.1 31.2 39.1 11.8 11.1 0.7 0.6 1.3 0.8 1.8 0.8 1.1 0.4 1.4 0.3 2.1 0.1 3.6-0.6 6.6-1.9 17.2-8.1 2-0.5 3.4-0.4 1.3 0 1 0.2 0.8 0.4 0.8 0.5 0.7 0.7 0.7 0.8 0.5 0.9 0.3 0.9 0.3 1.7 0 1.7-0.2 1.1-0.3 0.8-0.7 1.7-3.1 5.4-0.4 0.9-0.3 1-0.6 3.9-0.5 1.9-0.3 0.8-0.5 0.8-0.5 0.9-1.4 1.6-10.3 8.1-2.2 2.3-1.1 1.6-0.3 0.8-0.2 0.9-0.1 1.7 0.1 1.3 2.6 10 1.9 11.8 1.2 3 0.7 1.2 0.7 1.1 1.5 1.7 7.1 5.4 6 3.5 2.6 2 1.6 1.9 1.3 1.9 0.9 1.7 1.1 3.1 0.8 8.4 0.3 1.2 0.5 1.4 3.1 6.7 1.5 4.3 0.6 3.1 0 0.4 0.3 1.2-0.8 3.1-2.7 6.6-0.4 3.3 0.1 0.2 0 1.1-0.3 1.8-0.1 4.4 0.6 5.7 0 1-0.5 4.1-0.1 1.9-0.1 0.9-0.2 2.6 0.2 1.1 1 3.4 0 1.5-0.8 2.9-0.1 0.8-0.7 0.7-0.3 0.6-0.6 0.9-0.8 0.8-0.8 0.5-0.9 0.4-0.9 0.3-1.8 0.3-4.8-0.2-1.8 0.3-0.9 0.3-0.8 0.4-0.6 0.6-0.4 0.5-0.2 0.3-0.5 1-0.5 2.5-0.2 2.4 0.1 1.3 0.4 1.2 0.7 0.8 0.8 0.7 3.3 1.9 1.7 0.9 0.9 0.5 0.7 0.9 0.6 1.5 0 1-0.5 0.9-0.8 0.6-0.9 0.3-9.2 1.3-1.9 0.5-0.8 0.3-0.9 0.5-0.9 0.6-1.6 1.6-1.4 1.6-1.8 2.6-0.4 0.9-1 3.5-1 6.2-0.6 2.1-0.6 1.5-0.4 1.1-0.4 2 0.3 1.2 0.6 0.9 0.8 0.5 0.9 0.3 3 0.6 7.4 0.3 10.1-1.5 0.9 0.1 0.7 0.4 0.5 1.5 0.1 1.3-0.3 1.5-0.4 1.1-0.7 1.1-6.5 7-1.9 2.6-3.6 8.1-2.3 7.3-0.6 1.5-0.3 0.5-0.7 0.9-0.7 1.5-0.8 2.2-0.9 4.6-0.7 2.2-0.8 1.5-0.6 0.8-0.5 0.8-1.5 3.1-0.7 0.8-0.9 0.4-0.7-0.3-0.6-0.6-1-1.6-0.6-0.7-0.8-0.5-0.9-0.2-0.8 0.1-2.1 0.3-1 0-1-0.2-0.9-0.4-3.4-2.8-1.6-1.1-0.9-0.3-0.9-0.1-1 0.1-2.1 0.7-23.7 11.3-0.8 0.1-0.8-0.1-6.4-1.7-1.7-0.1-0.9 0.1-0.9 0.3-1.1 0.3-0.9 0.5-1.1 0.9-1.1 1.1-1.3 2.1-0.6 1.3-0.3 1.2 0 0.8 0.3 1.8 1.3 4.7 0.4 4.4 0 0.6-0.6 2.5-0.5 1.3-0.6 1.3-5.2 6.7-2.6 2-1.2 0.7-1.8 0.9-1.9 0.6-1.7 0.3-3.8 0.2-1.9 0.3-1.8 0.5-1.9 0.9-1 0.8-1 1-1.1 1.7-0.5 1.2-0.3 1.1 0.2 0.9 0.4 0.9 0.6 0.7 0.8 0.8 3.3 2.4 0.7 0.8 0.5 0.9 0.1 0.2 0.1 0-0.3 0.6-3.7 7.5-0.3 0.2-0.7 0.4-2.8 0-7.2 0-7.3 0-7.2 0-7.3 0-7.2 0-7.3 0-7.2 0-7.3 0-7.2 0-7.3 0-7.2 0-7.3 0-7.2 0-7.2 0-7.3 0-7.2 0-7.3 0-7.2 0-7.3 0-7.2 0-7.3 0-7.2 0-7.3 0-7.2 0-7.2 0-7.3 0-7.2 0-7.3 0-7.2 0-7.3 0-7.2 0-7.3 0-7.2 0-7.3 0-7.2 0-7.3 0-7.2 0-7.2 0-7.3 0-7.2 0-7.3 0-7.2 0-7.3 0-7.2 0-7.3 0-7.2 0-7.3 0-7.2 0-7.3 0-7.2 0-7.2-0.1-7.3 0-7.2 0-7.3 0-7.2 0-7.3 0-7.2 0-7.3 0-7.2 0-7.2 0-7.3 0-7.3 0-7.2 0-5.9 0-1.3 0 0-23.4 0-23.5 0-23.6 0-23.6 0-23.6 0-23.8 0-23.7 0-23.8 0-23.9 0-23.9 0-24 0-24.1 0-24 0-24.2 0-24.2 0-24.3 0-16.3 0-15.8 0-7.4 0-28.3 0-12.8 0-3.3z" id="EGWAD" name="Al Wadi at Jadid">
  </path>
  <path d="M649.3 162.1l1.4 8 0.9 17.5 0.6 1.9 0.7 1.1 0.5 0.8-15.1 10.6-0.2-0.4-1.7-1.7-1.6-0.8 0.4-0.8 0.8-0.8 0.4-0.3 0-2.4-1-1.7-3-3 0.6-0.4 0.3-0.4-0.1-0.4-0.4-0.5 0.4-0.2 0.2-0.1-0.2-0.2-0.4-0.1-0.3-0.5-0.3-0.5-0.4-0.4-0.2-0.4 0.1-0.2 0.2-0.2 0.3-0.1 0.6-0.1 0-0.5-0.2-0.6 0-0.5 0.2-0.8-0.4 0-1 2.1-0.1 0.9 0.2 0.7 0.4 0.5 0.4 0.6 0.1 1.1-0.6 0-0.2-1.1-0.6-0.5-0.8-0.1-0.9 0.6-1.3-0.5-1.4 0.9-1.3 1.6-0.7 1.5 0 1.6 0.4 1.2 1.1 0.9 1.6 0.4-1.3 1.1-6.2 8.8-0.4 0.7-0.7 0.8-2.2 4-0.4 1.4-0.1 3.5-0.4 1.4-1.1 1.2 0 0.7 0.8 0.6 0.9 1.2 0.7 1.2 0.6 1.8 0.8 0.9 3.8 2.5 0.9 0.8 3.4 4 2.4 1.4 2.1 2.2 1.8 2.5 0.7 1.6 0.3 2.1 0.8 2.9 1 2.6 1 1.5 0 0.6-0.3 1.5 2.1 8.4-7.2 0-1.4 0.2-3.1 1-2.1 1.3-22.7 10-1.6 0.5-1.1 0.2-6.1-0.3-10.2 1.5-3.1-1.5 4.7-65.6-0.3-4 0.6-7.6-1.6-17.7-2-8.4-0.1-4.9 26.8-0.9 6.5 0.5 2.1 1.4 1.1 0.5 1.3 0.4 3.9 0.6 0.9 0 0.4-0.1 2.1-1 0.4-0.2 2.9-2.8 0.6-0.3 2.4-0.8 2.3-0.2 14.2 1z" id="EGSUZ" name="As Suways">
  </path>
  <path d="M653.4 191.4l20.6-1 47.5 8.5 19 10.2 15.1 5.8 8.7 4.6 9.3 3.4 31 4.9-0.7 0.4-0.7 0.5-0.5 0.6-0.5 0.8-0.4 1-0.3 0.8-0.4 0.7-0.9 0.4 0.2 0.1 0.2 0 0.1 0.1 0 0.4-0.6 0.3-0.5 0.5-0.2 0.5 0.3 0.5-0.7 0.1-0.4 0.2 0.1 0.4 0.5 0.4-0.9 0.8-1.7 2.7-0.4 0.4-0.8 0.4-0.3 0.3-0.3 0.6-0.3 0.5-0.3 0.4-0.7 0.4 0 0.5 0.7 1.2-0.3 1.2-0.5 1.2-0.4 1.1 0 4.4-0.4 1-0.9 0.8-0.9 0.6-0.4 0.5 0 1.2-0.3 1.4-0.5 1.3-0.7 1.1 0.2 1-0.2 5.1 0.2 0.8 0.7 1.1 0.2 1-0.2 1-0.6 0.5-0.7 0.2-1.6 1.1-0.3 0.5-0.2 1.1 0 0.5 0.4 1.7 0.1 5.1-2 1.5 0 0.5 0.2 0.8 0.2 1.1 0 1.2-0.4 1 0.3 0.4 0.2 0.3 0.5 1-0.7 0.5-0.1 0.5 0.1 0.5 0.2 0.6-0.2 0.9-0.3 0.6-0.4 0.4-0.2 0.4-0.4 1.5-1.7 2.5-1 3.9-3 4.5-1 2.5-0.1 0.2 0.1 0.2-0.1 0.1-0.4 0 1 2.6-0.9 1.6-1.7 1.3-1.5 1.5 0.2 0.2 0.1 0 0.2 0.4-1 0.5-0.6 1.1-0.7 3.8-0.3 0.9-0.8 1.4-0.2 0.1-0.2 0.9-1.1 2.1-0.2 1.1 0.1 1.4 0.2 1.1 0.3 0.9 0.4 0.9 0 0.6-0.6 1.4 0.7 1.2 0.9 1.2 0.7 1.4 0.7 0.6 0.2 0.5 0 0.6-0.2 0.4-0.2 0.2-0.1 0.3-0.1 1.1-0.6 2.9-0.9 2.4 1.3 2.3-1.3 6 0.6 0.6-2 0.3-0.6 0.3-0.2 0.5-0.2 0.8-0.4 0.7-0.9 0.6-0.5 1.2-0.6 0.3-0.6 0-1 0.4-0.7 0.1 0.1 0.3 0 0.1 0.1 0 0.3 0.2-0.5 1.3-0.8 2.5-0.7 0.8-0.5 0-0.3-0.4-0.6-0.2-0.5-0.4-0.5 0.5-0.5 1.9-0.7 0.9 0.6 1.1-0.9 0.9-1.5 0.6-1 0.2-0.7 0-0.2 0 0.3 1.3 0.3 0.5 2.7 0.1 0 0.5-0.6 0 0 0.6 0.4 0.3 0.2 0.4 0.4 1-0.7-0.4-0.3-0.2 0.1 0.3 0 0.2 0.1 0.1 0.4 0 0 0.6-0.6 0-0.4-0.7-1.3-1.8-1.4-1.5-0.6-0.5-0.8-0.4-1.1-0.4-7.2-0.7-1.7-1.2-5-6.1-0.4-0.3-0.6 0.1-4.3-3.9-0.9-0.5-1-0.1-0.9 0.7-1-2.3-0.5 0.5-0.7-0.8-2.6-2.2-0.6-0.3-0.2-0.1-0.3-0.4-0.2-0.7-0.3-0.3-0.5-0.5-0.5-0.2-1.2-0.3 0-2.1-3.5-2.2-0.1-1.5-1-0.9-1.3-1.7-0.9-1.9 0.2-1.2-0.4-0.3-0.3-0.1-0.2-0.3-0.2-0.5-0.5 0 0 0.6-0.5 0-0.2-0.4-0.7-0.7-0.1-0.3-1.1-4.1-0.4-0.7-0.6 0.4-0.5-1.1-1.8-2.6-0.7-1.4-9.7-5.9-0.5-0.9-0.3-0.1-1.8-3.1-1.4-1.3-0.9-1 0-0.5-4.7-3.5-0.8-0.8-0.3-0.7-0.3-0.7-0.6-1-0.8-1-0.9-0.4 0.5-0.7 0 0.7 0.5 0-0.5-2.8-1.2-0.2-0.7 1.1 1.4 1.2-1.2-0.4-0.8-1.1-0.4-1.5-0.3-3.4-0.5-1.5-1.3-2.5 0.7-1.7 1-3.9 0.7-2-0.9-1.1-0.4-0.7-0.4-1.7-0.5-0.4-0.7-0.2-0.6-0.5-0.4-1.6-0.3-3.8-0.3-1.1 0-0.5 0.7-0.8 0.1-0.7-0.3-2-0.2-0.4-0.3-1.2-0.1-1.3 0.4-0.6 0.5-0.6-0.5-1.1-0.9-1-0.4 0.1-0.2-0.9-0.4-0.7-0.7-0.2-0.7 0.3-0.8-1-2-1.1-0.8-0.8-0.9-2.1-0.2-0.5-0.2-0.5-1.1-0.9-0.2-0.4-0.3-0.1-1.2-1.9-0.2-0.2-0.6-0.3-0.3-0.1-0.1-0.3-0.2-0.7-0.1-0.2-3.4-3.5-1.2-0.4-1.6-0.9-1.6-1.1-1-1.1-0.4-1.3-0.3-1.8-0.5-1.5-1-0.7-0.7-0.2-0.5-0.7-1.5-3.7-0.1 0 0.2-3.2-0.3-1.5-2-0.9-3.6-2.7 0.6 0-0.3-0.6-0.3-0.3-0.4-0.1-0.6-0.1 0.2-0.2 0.2-0.2 0.2-0.3-0.1-0.5-0.5 0-0.3 0.7-0.2 0.7 0.1 0.5 0.4 0.4-1 0 0.6-3.1 0.1-4-0.9-3.5-2.3-1.7 0-0.5 0.4-1 0-1.2-0.3-1.3-0.1-1.2 0.2-1.3 0.6-1.7 0.2-0.9-0.1-1.4-0.2-0.9-0.3-0.7-0.4-0.8-1.8-2.3-0.3-0.9-0.1-0.2 15.1-10.6z m128.9 166.6l1.2 1.1 1.4 1.2 0 0.7-2.9 0.2-2.6-0.2-2.1-0.9-1.5-1.9-0.1-0.2 0.1-1.1-0.3-1.6-0.4-0.7 0.3-0.4 0.1-0.1 0.2 0.5 0.2-0.7 0.4-0.5 0.4-0.3 0.5-0.2 1.3 0.7 0.4 0.4 0.3 0.6-1.9 0.4-0.9 0.4-0.2 0.9 0.3 0.4 0.3 0.3 1.3 0.1 2.1-0.3 1-0.4 0.1 0.2 0.2 0 0.4 0.6 0.3 0.6 0.1 0.2z m10.9-0.1l0 3.2-2 0.9-1.8-0.6-1.4-1.3 1.5-2.4 3.7 0.2z" id="EGJS" name="Janub Sina'">
  </path>
  <path d="M634.4 92.2l0 0.1 0.2 7.6-21.6-12.6-1.6 0.4-0.1-4.8-0.1-0.1 0.2 0 0.3-2.5 0.1-1.3-0.4-1.4-1.3-1.6-0.2-0.8 1-0.7-1.2-0.6-0.8-0.3 0-0.5 0-0.6 3.3 0.6 1 0.8 0.4 0 0.9 0.1 0.2 1.4 0.7 1.2 1.1 0.7 2.3 0.6 0.9 0.8 1.4 1.8 3.1 3.1 1.4 1.1 2.1 3.6 2 1.8 2.2 1.4 2.5 0.7z" id="EGPTS" name="Bur Sa`id">
  </path>
  <path d="M608.9 72.5l0 0.6 0 0.5-0.7-0.3-1.5-0.2-1 0.3-0.5-1.5 0.9 0.1 1 0.1 1.8 0.4z m-34.4 0.9l0.1 0-0.1-0.2-0.1 0-0.1-0.1-0.1-0.3 1 0.4 0.5 0.2 0.7 0 0.6 0.4 0.2 0.8 0 0.7 0.3 0.4 0.8 0.2 1.2 0.6 1.1 0.8 0.7 0.8 0.6-1.4 0.4-0.6 0.5-0.4-0.3 0.8-0.1 0.6 0.1 0.4 0.3 0.6-1 0 0 0.6 1 0-0.2 0.2-0.2 0.2-0.2 0.2 0.1 0.6 0.4 0 0.2-0.2 0.1-0.2 0.3-0.2 0.1 0.1 0 0.2 0.1 0.2 0.3 0.1 0-0.6 0.5 0-0.3 1.2 0.3 0.8 0.6 0 0.5-1.4 0.8-0.1 1.2-1.2 1.4-1 1.7 0.5-1.1 0 0 0.6 1.1 0.6 0.2-0.4 0.5-0.4 0.3-0.4 1.1 0.6 0 0.6-0.3 0.4-0.2 0.3-0.1 1.1 0.8-0.4 0.3-0.2-0.1 0.8-0.2 0.4-0.3 0.4-0.5 0.2 0 0.5 0.5 0.8 0 0.9-1.5 1.4 0 0.6 0.8 0 0.6-0.2 0.5-0.4 0.2-0.6 0.4 0 0.1 0.9 0.1 0.2-2.3 1.5-0.7 0.3-0.2 0.1-1.3-0.1-0.4 0-0.2 0.1-2.3 1.9-0.2 0-0.2 0.1-0.8 0.1-3.5 0.8-1.1 0.1-0.1 0-0.6 0.3-0.3 0.1-0.2 0-0.1 0-0.4-0.1-0.5-0.3-0.2 0-0.2 0-0.3 0-0.6 0.4-0.2 0-0.6 0.1-0.3 0-0.3 0.1-0.2 0-0.3 0-0.5-0.1-0.4 0-0.4 0-0.1 0.1-0.4 0.5-2.7 5.1-3.9 4.7-0.7 1.4-0.4 1.1-0.5 0.8-1 0.7-0.5 0.3-0.8 0.2-0.7 0.3-0.6 0.6 0 1 0.3 1.4-0.1 0.8-0.5 0.7-2.2 2-0.8 1-1.2 0.7-0.9 0.1-2.5-0.3-0.7 0.2-1.2 0.2-0.7 0-0.7-0.2-3.6 0.1-1.5 0.3-1.2 0.5-0.7 0.6-0.6 0.7-0.5 1-0.2 1.2 0 1.7 0.6 3 0.4 2.5 0.4 1.5 0.2 0.8 0.1 1.7-0.3 1.8-1.8 1.9-1.6-0.4-0.6 0.4-1 0.3-1 0-1-0.7-2.2-0.8 1.2-4 0.1-2.3-0.9-4-0.2-2.3-0.2-0.7-0.3-0.2-0.4 0-0.2-0.3-0.5-2.1-0.3-3.7-0.7-0.7-0.3-0.6-0.2-0.7 0.4-0.3 1.6-0.5 0.5-0.3 0.4-0.1 0.1-0.2 0.1-0.9-0.2-0.4-0.4-0.4-0.5-0.4-0.5-0.3 0.6-0.1 0.3-0.2 0.3-0.2 0.4-0.1-1-1 0.2-0.6 0.8-0.7 0.5-0.7-0.1-1.1-0.3-0.7-0.3-0.7 0.2-1.1 0.6-0.8 0.8-0.3 0.8-0.1 0.9-0.5 0.1-0.4 0.5-2.5-0.1-0.6 0.1-0.5-0.3-0.2-0.4-0.1-0.7 0.4-0.7 0.1-0.8 0.2-0.6 0.4-0.8 0.3-0.2-0.1-0.7-0.3-0.5-0.1-0.4-0.2-0.4-0.5 0.1-0.7 0.7-2.3 0.5-4.1 0.1-0.2 0.2 0.1 0.2 0.2 0.5 0.1 1.2-0.6 0.6-0.5 0.8-0.5 0.7 0 0.5-0.2-0.3-0.8-1.3-1.2-0.4-0.7-0.1-0.8 0.7-1.9 0.3-1.5-0.1-2.5-0.2-1.5-0.1-1.5 0.2-3.9 0-2.7-0.7-5.2-0.2-0.9-0.3-0.8-1.1-1.2-0.3-0.4-0.2-0.8 0.1-0.7 0.1-0.8 0.3-0.5 1.9-1.5 5.4-2.9 2.1 0.9 3.1 2.4 7.7 3.6 2.5 0.6 1.1 0 0 0.1-0.3 0.8-0.2 0.5-0.3 0.6-0.5 0.6-2.6 1.9-1.3 1.5-0.2 0.3 0.1 0.5 0.6 0.5 3.4 0.5 0.4 0.2 0.2 0.6-0.1 0.6 0 0.6 0.3 0.4 0.5 0.3 0.5-0.2 0.6 0.1 0.9 0.8 0.5 0.3 0.5 0 0.4 0.4 0.5 1.1 0.3 0.1 0.4 0.2 0.8-0.3 0.5-0.5 0.1-0.5 0-0.3-0.2-0.8 0-0.3 0.1-0.4 1.5-0.6 0.4 0 0.4 0 0.3 0.6 0.2 0.7 0.2 0.7-0.3 0.3 0 0.7 0.5 0.7-0.3 0.4-0.6 0-0.6-0.6-0.5 0-0.2 0.3-0.2 0.3-0.2 0.7 1.4 0.7-0.1 1-1.1 0.9-1.4 0.4-1.3 0 0 0.4 0.4 0.7 0.1 1.2-1.4 1.9-1.2 0.4 0.2 1.1 0.3 0.8 0.5 0.4 0.9-0.1 4.1-3.6 2-1 3.3-0.9 2.3-1.5 1.1-2.8z m22.3-7.6l0.8 0.3 1.8 2.1 0.5 0.4 1 0.5 3 2.3 0.8 0.5-2.3-0.5-7.4-4.6 0.4 0 0.4 0 0.2 0.1 0.5 0.5-0.1-0.6-0.4-0.4 0-0.1 0.3-0.1 0.5-0.4z" id="EGDK" name="Ad Daqahliyah">
  </path>
  <path d="M611.2 82.8l0.1 0.1 0.1 4.8-1.9 0.9-2.7 0.7-6.4 0.7-0.3-0.5 1.2-0.1 0.4 0.1 0-0.7-0.4 0 0-0.1 0-0.1-0.1-0.3 0.1-0.1 0.9-0.5 0 0.5 0.2 0.1 0.4-0.1 0.4 0.1-0.3-0.9 0.6-0.7 0.8 0 0.8 1.4 1 0.4 1.1 0 1.1-0.2 1.8-1 0.8-1.6-0.2-1.6-1.4-1.3 1.8 0 0.1 0z m-69.6 51.7l1.8-1.9 0.3-1.8-0.1-1.7-0.2-0.8-0.4-1.5-0.4-2.5-0.6-3 0-1.7 0.2-1.2 0.5-1 0.6-0.7 0.7-0.6 1.2-0.5 1.5-0.3 3.6-0.1 0.7 0.2 0.7 0 1.2-0.2 0.7-0.2 2.5 0.3 0.9-0.1 1.2-0.7 0.8-1 2.2-2 0.5-0.7 0.1-0.8-0.3-1.4 0-1 0.6-0.6 0.7-0.3 0.8-0.2 0.5-0.3 1-0.7 0.5-0.8 0.4-1.1 0.7-1.4 3.9-4.7 2.7-5.1 0.4-0.5 0.1-0.1 0.4 0 0.4 0 0.5 0.1 0.3 0 0.2 0 0.3-0.1 0.3 0 0.6-0.1 0.2 0 0.6-0.4 0.3 0 0.2 0 0.2 0 0.5 0.3 0.4 0.1 0.1 0 0.2 0 0.3-0.1 0.6-0.3 0.1 0 1.1-0.1 3.5-0.8 0.8-0.1 0.2-0.1 0.2 0 2.3-1.9 0.2-0.1 0.4 0 1.3 0.1 0.2-0.1 0.7-0.3 2.3-1.5 0.2 0.5 0.4 0.5 0.7 0.3 0 0.6-0.7 0.2-0.6 0.3-0.4 0.5-0.2 0.8 0.4 0.1 0.5 0.5 0.8-0.5 0.6-0.1 0.6 0.2 0.5 0.4 0 0.5-0.5 0 0 0.7 0.8 0.6 0.9 0.5 1 0 0.9-0.6 0-0.5-1.1-0.1-0.7-0.5-0.5-0.9-0.2-0.9 1.1 0.2 1.5 0.8 0.7 0.1 0.1 0.5 1.2 1.7 1.1 0.7 1.3 1 0.7 2.6 0 1-0.1 1.1-0.4 1.4-2.2 2.8-1.1 3.2-1 1.8-0.5 1.5-0.9 2.2-0.1 3.3 1 4.6-0.8 2.2-1.6 3.4-4.9 6.5-2.3 2.4-2 1.3-2.2 0-1.9 0.3-1.1 0.4-2 0.3-3.3 0-0.2-0.1-3.4-1-0.3 0-0.1 0-0.5-0.1-0.3-0.1-0.2 0.2-0.2 0.3 0 0.9 0.3 0.9 0.9 1.1 0.8 0.6 0.7 1 0.7 2.2 0.3 3.1 2.2 9-18.5 12.8-15.5-7.7-0.8-0.8-0.6-0.8-0.6-1.7-0.7-1.4-0.5-2.1-0.7-1.2-0.8-0.9-0.7-0.6-0.5-0.8-0.8-1.6-1.2-1-0.6-0.6 0.2-2.4 0.9-3.1 0.1-1.5 0.4-0.9 0.9-1.1 1.9-1.4 1.6-1.5z" id="EGSHR" name="Ash Sharqiyah">
  </path>
  <path d="M634.6 99.9l3.1 30 0.1 7.7 0.3 1.8 0.2 1.2 0.2 0.3 6.8 11 4 10.2-14.2-1-2.3 0.2-2.4 0.8-0.6 0.3-2.9 2.8-0.4 0.2-2.1 1-0.4 0.1-0.9 0-3.9-0.6-1.3-0.4-1.1-0.5-2.1-1.4-6.5-0.5-26.8 0.9-3.3-9.2-2.2-9-0.3-3.1-0.7-2.2-0.7-1-0.8-0.6-0.9-1.1-0.3-0.9 0-0.9 0.2-0.3 0.2-0.2 0.3 0.1 0.5 0.1 0.1 0 0.3 0 3.4 1 0.2 0.1 3.3 0 2-0.3 1.1-0.4 1.9-0.3 2.2 0 2-1.3 2.3-2.4 4.9-6.5 1.6-3.4 0.8-2.2-1-4.6 0.1-3.3 0.9-2.2 0.5-1.5 1-1.8 1.1-3.2 2.2-2.8 0.4-1.4 0.1-1.1 0-1-0.7-2.6-1.3-1-1.1-0.7-1.2-1.7-0.1-0.5 0.3 0.1-0.3-0.7 6.4-0.7 2.7-0.7 1.9-0.9 1.6-0.4 21.6 12.6z" id="EGIS" name="Al Isma`iliyah">
  </path>
  <path d="M574.5 73.4l-1.1 2.8-2.3 1.5-3.3 0.9-2 1-4.1 3.6-0.9 0.1-0.5-0.4-0.3-0.8-0.2-1.1 1.2-0.4 1.4-1.9-0.1-1.2-0.4-0.7 0-0.4 1.3 0 1.4-0.4 1.1-0.9 0.1-1-1.4-0.7 0.2-0.7 0.2-0.3 0.2-0.3 0.5 0 0.6 0.6 0.6 0 0.3-0.4-0.5-0.7 0-0.7 0.3-0.3-0.2-0.7-0.2-0.7-0.3-0.6-0.4 0-0.4 0-1.5 0.6-0.1 0.4 0 0.3 0.2 0.8 0 0.3-0.1 0.5-0.5 0.5-0.8 0.3-0.4-0.2-0.3-0.1-0.5-1.1-0.4-0.4-0.5 0-0.5-0.3-0.9-0.8-0.6-0.1-0.5 0.2-0.5-0.3-0.3-0.4 0-0.6 0.1-0.6-0.2-0.6-0.4-0.2-3.4-0.5-0.6-0.5-0.1-0.5 0.2-0.3 1.3-1.5 2.6-1.9 0.5-0.6 0.3-0.6 0.2-0.5 0.3-0.8 0-0.1 1.9-0.1 11.3-3.2 6.6-3.9 2.7-0.9 2.9 0.1 2.4 1.2 1.1 2.3 0.3 1.1 2.4 3.2 1 2.5 1.2 1.5 2.3 2.1 0.8 0.4 1.9 0.4 0.1 0.1-0.5 0.4-0.3 0.1 0 0.1-0.5-0.2-1.5-0.2-0.4-0.3-0.2-0.4-0.3-0.4-2-1-0.8-0.7-0.3 0-0.6 0-0.2-1.2-0.5-1-0.6-0.8-0.7-0.6 1 0 0.9-0.1-3.7-4.7-0.8-1.4-1.1-1.4-0.9-0.5 0 0.3-1.2-0.5-0.5 0.3-0.3 0.8-1-0.6 0 0.3 0 0.6 0 0.3-0.3-0.2-0.5-0.2-0.3-0.2 0 0.7-0.1 0.5-0.4 0.6 1.6 0-0.4 1 1.1 2.1-0.2 1.2 0.5 0 0 0.5-0.5 0 0.1 0.4 0.3 0.4 0.1 0.4-0.5 0-0.3-1-0.5-0.8-0.7-0.5-1.1-0.1 0.3-0.6-0.3-0.1-0.5 0.5-0.5 1.4 0.5 0.1 0.2-0.1 0.3-0.5 0.6 0.4 0.4 0.1 0.6 0 0 0.6-0.6 0 0 0.6 0.3 0.6 0.4 0.3 0.6 0.2 0.8 0.1-0.5 0.5-0.8 0.2-0.7-0.2-0.6-0.5-0.5 0 0.1 0.4-0.2 0.1-0.2 0-0.2 0.1 0.3 0.3 0.3 0.3 0.4 0.6-1 1.3-0.2 1 0.7 0.6 1.6 0 0 0.7-1-0.2-0.8-0.3-0.7-0.1-0.6 0.6-0.5 0-0.5-0.5-0.5 0-0.4 0.5-0.1 0.9 0.3 0.4 0.5 0.4 0.1 0.3-0.9 0.4 0 0.5 0.4 0.8-0.5 0.3-0.9 0.3-0.6 0.5-0.1 1.2 0.4 0.8 0.8 0.2 0.8-0.4z" id="EGDT" name="Dumyat">
  </path>
  <path d="M541.4 51.5l-5.4 2.9-1.9 1.5-0.3 0.5-0.1 0.8-0.1 0.7 0.2 0.8 0.3 0.4 1.1 1.2 0.3 0.8 0.2 0.9 0.7 5.2 0 2.7-0.2 3.9 0.1 1.5 0.2 1.5 0.1 2.5-0.3 1.5-0.7 1.9 0.1 0.8 0.4 0.7 1.3 1.2 0.3 0.8-0.5 0.2-0.7 0-0.8 0.5-0.6 0.5-1.2 0.6-1.6-1.4-0.4-0.3-0.7-0.2-0.8-0.1-0.9 0.1-0.8 0.4-1.6 1.5-0.8 0-1.7-0.7-4-0.2-0.6 0.7-0.1 0.8 0 0.9 0.1 1.5 0 0.5-0.3 0.7-0.3 0.7-0.4 1.7-0.7 0.8-1.2 0.5-5.3 0.4-0.7 0.2-0.7 0.4-0.9 0.5-0.2 0.2-0.1 0.1 0.1 0.3-0.2 0.2-0.6 0.2-1.1-0.1-1.1 0.1-1.3 0.5-0.9 0.2-4.4-1.6-0.2-0.1-0.5-0.2-0.6 0.1-0.6 1.7-0.8-1.3-1.3-1.2-0.6-0.6-0.2-0.7 0.2-1.3 0-0.9-0.4-0.8-1-1.4-0.2-0.4-0.5-0.8-3.6-2-3.4-5-0.6-0.7-0.8-0.3-0.4-0.2-0.8-1.2-0.6-0.3-0.6 0.1-0.3 0.2-0.2 0.2-0.4 0.1 0 0.1-1.3-0.1 0-0.5-0.4-2.4-0.4-0.7-0.5 0 0 0.6-0.4 0-0.2-0.2 0-0.1-0.1-0.1-0.3-0.2 0-0.5 0.9-0.9 0.6-1.4 0.4-1.7 0.2-1.8-0.1-0.9-0.2-0.7-0.3-0.5-0.5-0.5-0.3-0.2-0.6-0.4-0.3-0.3-0.6-0.4-0.4 0.4-0.3 0.6 0 0.3-0.7-0.3-0.5-0.4-0.3-0.6-0.1-0.8-0.3-0.9-0.7-0.4-0.7-0.2-0.3-0.3 0.1-2.2-0.2-1.7-0.7-1-1.2-0.2-2.1-1.6-1.1-2.6 0.5-1.5 2.7 1.5 2 1.6 2.3 0.9 2.7 0.3 3.2-0.4 10.5-2.8 22.1-7.9 0 0.6-1.1 0.1-6.9 2.6-5.7 3.4-4 1.8-3.2 2.2-0.4 0.2-1 0.2-0.6 0.2-2.8 2-1.3 0.4-3 0.3-0.6 0.3-0.4 0-1.1 1.8 0 0.6 1.5 0.4 0.6 0 0.4-0.4 0.5 0 1.2 0.7 2.1-0.1 2-0.7 0.9-0.8 0.7-1.4 1.5 0.4 1.5 1.3 0.9 1.2 0.5 0 0.5-1.5 1.1-1.5 1.4-1.2 1.1-0.6 0.7-0.3 0.8 0.4 0.9 0.6 1.1 0.5 0.8-0.1 0.9-0.2 1.1-0.1 0.8 0.4-0.2 0.1-0.2 0-0.1 0.1 0 0.4 1 0.3 1.3-0.4 1.3-0.8 1-0.9-0.2-0.1-0.2 0-0.1-0.1 0-0.3 0.3-0.2 0-0.1 0-0.1 0.2-0.3 2.5 1.1 0.5 0.7 0.7-0.6 0.5-0.7 0.9-1.7-0.5-0.8 0.3-0.5 1.2-1.1 0.2-0.5-0.1-0.5 0-0.4 0.4-0.4 0.5-0.1 2.7 0.2 0.7 0.3 1.2 0.8 0.2 0.4 0 0.4 0.1 0.3 0.7 0.1 0.6-0.1 0.5-0.5 0.3-0.5-1.4-0.7 0.5-0.3 0.5-0.2 0.5 0.1-1.5-2-3-2.3-3.5-1.5-3.4-0.1 0.7-0.4 1.9-0.7 6.3-1 2.3 0.3 6.9 2.2 9.6 4.4z" id="EGKFS" name="Kafr ash Shaykh">
  </path>
  <path d="M465.4 192.7l-48.9-30.4-3.5-7.3 4.4-10.8 3.3-3.5 12.2-5.8 2.7-1.9 2.4-2.6 1.8-2.8 2-3.8-1-3.3-1-2.1-3.5-4.2-4.7-7.8-0.6-1.6-0.2-2 1.1-2.1 1.3-1.5 0.9-1.6 0.1-0.4-0.7-2.4-1.5-0.8-0.4-0.9-0.3-0.4-0.1-0.3-0.1-0.3-0.1-0.7 0-0.4 0.1-0.3 0.1-0.1 0.4-0.3 4.3-1.9 5-3 0.9-0.7 2-2.9 4.3-8.4 0.1-0.6 2.8 0.9 2.8 0.3-0.7 0.4-0.8 0.9-0.6 0.4-0.1 0.5 0.1 0.1 0.3 0 0.2 0.1-0.9 0.6 0.3 0.6 0.8 0.7 0.8 0.4 3.1-1.8-0.4 1 0.4 0.5 0.7 0.1 0.3-0.1 0.3-0.5 2.3-2.2 0.2 0.4 0 0.1 0.3 0.2 0.1-0.5 0.2-0.3 0.1-0.4 0.1-0.7 0.5 0-0.1 1 0.2 0.7 0.4 0.4 0.5 0.3 0.3-0.6 0.8-2.3-1.2-0.6-1 0.2-1.1 0.6-1.4 0.3 0-0.5 0.3-0.1 0.5 0.1 0.3 0 0-0.6-1.2 0.4-4.4 0.2 0-0.6 2.7-0.7 2.6-1.5 4.6-4.1 1.6-2.7 1-3.5 0.3-3.6-0.6-3.1 0.5 0 0.4 1.7 0.6 1.6 1.1 1.2 1.5 0.3 1.2 0.2 0.7 1 0.2 1.7-0.1 2.2 0.3 0.3 0.7 0.2 0.7 0.4 0.3 0.9 0.1 0.8 0.3 0.6 0.5 0.4 0.7 0.3 0-0.3 0.3-0.6 0.4-0.4 0.6 0.4 0.3 0.3 0.6 0.4 0.3 0.2 0.5 0.5 0.3 0.5 0.2 0.7 0.1 0.9-0.2 1.8-0.4 1.7-0.6 1.4-0.9 0.9 0 0.5 0.3 0.2 0.1 0.1 0 0.1 0.2 0.2 0.4 0 0-0.6 0.5 0 0.4 0.7 0.4 2.4 0 0.5 1.3 0.1 0-0.1 0.4-0.1 0.2-0.2 0.3-0.2 0.6-0.1 0.6 0.3 0.8 1.2 0.4 0.2 0.8 0.3 0.6 0.7 3.4 5 3.6 2 0.5 0.8 0.2 0.4 1 1.4 0.4 0.8 0 0.9-0.2 1.3 0.2 0.7 0.6 0.6 1.3 1.2 0.8 1.3-0.9 0.6 0.1 0.5 1.8 2.8 0.3 1.4-0.6 1.1-1 1.2-0.2 0.9 1.6 0.4 0.8 0.3 0.3 0.8-0.1 1-0.2 0.9-0.3 0.5-1.8 1.2 2.3-0.5 1.1 0 0.7 0.5-0.1 0.8-1 0.5-1.9 0.5-0.4 0.5-0.8 1-0.5 1.2 0.1 0.9 1 0.4 1-0.3 0.8 0 0.3 1.4-0.4 0.3-0.7 1.2-0.5 1.2 0.3 0.6 0.7 0.3 0.4 1 0.2 1.2 0.1 3.7 0.5 2.1 0.9 1.5 1.6 0.8 0 0.6-0.9 0.4-0.3 0.6-0.1 0.7 0.2 0.7 0.4 0.4 0.5 0 0.6-0.1 0.6 0.2-0.1 1.3-0.4 1.1-0.5 1-0.5 0.8 1 2 0.3 0.9 0.2 1-0.2 0.8-0.3 1.2-0.2 1.2 0.2 1.2 2.1 1.5 0.5 1-3.5 1-0.5 1.1 0.5 1.3-34.5 31.2-3 6.2z" id="EGBH" name="Al Buhayrah">
  </path>
  <path d="M413 155l-2-58.2 0.4-0.3 0.5-0.8 0.6-0.6 11-8.1 1.1-2.3 2.1 0.5 2.2-1 3.4-3.1-0.7-1-0.2 0.1-0.7 0.3 0.5-0.9 0.5-0.6 0.6 0 0.5 0.9 0.5 0 0.9-0.9 3.4-3.2 1.1-0.6 1-0.5 1.4-2.1 0.6-0.5 1.1-0.2 0.6-0.4 0.5-0.6 0.7-0.5-0.3-0.1-0.2 0-0.1-0.2 0.1-0.4 2-1.1-0.2 2.5 2.1 1.7 0.2 0-0.1 0.6-4.3 8.4-2 2.9-0.9 0.7-5 3-4.3 1.9-0.4 0.3-0.1 0.1-0.1 0.3 0 0.4 0.1 0.7 0.1 0.3 0.1 0.3 0.3 0.4 0.4 0.9 1.5 0.8 0.7 2.4-0.1 0.4-0.9 1.6-1.3 1.5-1.1 2.1 0.2 2 0.6 1.6 4.7 7.8 3.5 4.2 1 2.1 1 3.3-2 3.8-1.8 2.8-2.4 2.6-2.7 1.9-12.2 5.8-3.3 3.5-4.4 10.8z" id="EGALX" name="Al Iskandariyah">
  </path>
  <path d="M581.4 164l0.1 4.9 2 8.4 1.6 17.7-0.6 7.6-47.4 2-0.6-1.1 0.5-1 0.5-1.8-0.1-3.2-0.5-3.6-1-3.3-1-2.2-1.9-2.2-0.8-1.3-0.4-1.6 1.2-9.2 5.1-1.9 0.3-0.2 0.2-0.1 0.2-0.3 0.1-0.2 0.2-0.4 0.1-0.7 0.1-0.3 0.1-0.1 0.2-0.1 0.3 0.1 0.5 0.2 0.3 0.2 0.3 0.1 0.5-0.1 0.9-0.4 0.4-0.3 1.7-0.8 3.6-0.7 11.5-0.5 18.5-12.8 3.3 9.2z" id="EGC" name="Al Qahirah">
  </path>
  <path d="M580.1 272.2l-27.4-8.3-1.5-0.7-2.2-1.3-1.4-1.1-3-3.1-0.8-1.2-0.4-0.6-1-2.4-0.5-0.7-0.5-0.6-1.6-1.4-5.4-6.7 0.2-1 0-0.7 0-0.9-0.2-0.9-0.4-0.8-0.7-1.3-0.5-0.6-0.6-0.6-0.7-0.4-1.1-0.6-2.2-0.7-1.9-0.3-3.4 0.1-5.3-24-2.1-2.1-3.4-2.7-15.7 1.9-15.6 7.2-13.5 8.1-5.4 4.4-34.8 33.8-3 21.5-1.9 6.5-12 31.8-9.5 12.5-11.3 8.4-34.4 18.2-5.3 4-3.7 5.7-5.4 11.6-98.9 0 32.2-68.8 2.1-3.1 3.5-3.9 5.5-2.3 59.1-15.4 15-11.4 48.3-49 58-35.6 3-6.2 34.5-31.2 1.4 0.6 2.3-1.7 2 0.5 0.6 0.4 0.1 0.7 0 1 0.1 0.9 0.5 1.2 0.2 0 0.7 0.3 0.9 0.3 0.8 0.4 0.1 0.2 0.5 0.4 0.2 0.9 0.1 1.9 0.4 1.3 0.9 0.9 1.3 0.4 1.5 0.1 0.6-0.3 1.1-0.8 0.6-0.2 0.6 0.2 1 0.9 0.9 0.4 1.8 1.5 0.9 0.5 1.2 0.7 1.6 1.7 0.9 0.5 2.9 0.3 0.8 0.5 0.4 0.6 0.2 0.8 0 0.8-1.2 9.2 0.4 1.6 0.8 1.3 1.9 2.2 1 2.2 1 3.3 0.5 3.6 0.1 3.2-0.5 1.8-0.5 1 0.6 1.1 47.4-2 0.3 4-4.7 65.6z" id="EGGZ" name="Al Jizah">
  </path>
  <path d="M511.2 293.7l-2.4 20.7-0.4 1.8-0.4 0.9-3.6 6.3-2.2 5.6-0.4 1.9-0.2 1.5 0.1 0.9 0.8 3.9 0.3 3.6 0.2 1 0.3 1 4 7.9 1.2 3.3 0.4 2.3 0.6 8 0.4 1.9 1.7 4.5 0.4 1.6 0.3 2.6 0.1 2-0.1 1.3-1.3 8-8 1-0.8-0.1-4.3-1.8-0.5 0-0.7 0.1-2.4 0.5-1.4 0-2-0.8 0.3-1.1 0.9-1.8-151.5 0 5.4-11.6 3.7-5.7 5.3-4 34.4-18.2 11.3-8.4 9.5-12.5 12-31.8 75.9-1.8 1.4 1.4 11.7 4.1z" id="EGMN" name="Al Minya">
  </path>
  <path d="M427.1 262l34.8-33.8 5.4-4.4 13.5-8.1 15.6-7.2 15.7-1.9 3.4 2.7 2.1 2.1 5.3 24-2.9 3-2.9 5.7-3.1 3.4-1.3 2.6-2.4 3.6-5 5.6-6.3 3.2-31 8.8-3.5 0.3-5-3.6-32.4-6z" id="EGFYM" name="Al Fayyum">
  </path>
  <path d="M534.4 244.1l-0.3 3.6 0.2 3.4-0.1 1.2-0.5 1.5-0.9 1.8-1.3 3.5-0.9 1.9-1.1 1.6-3.3 3.6-2.1 2.7-4.3 7-5 6.7-1.5 3-1.4 3.9-0.6 2.5-0.1 1.7-11.7-4.1-1.4-1.4-75.9 1.8 1.9-6.5 3-21.5 32.4 6 5 3.6 3.5-0.3 31-8.8 6.3-3.2 5-5.6 2.4-3.6 1.3-2.6 3.1-3.4 2.9-5.7 2.9-3 3.4-0.1 1.9 0.3 2.2 0.7 1.1 0.6 0.7 0.4 0.6 0.6 0.5 0.6 0.7 1.3 0.4 0.8 0.2 0.9 0 0.9 0 0.7-0.2 1z" id="EGBNS" name="Bani Suwayf">
  </path>
  <path d="M502.9 155.3l-0.5-1.3 0.5-1.1 3.5-1-0.5-1-2.1-1.5-0.2-1.2 0.2-1.2 0.3-1.2 0.2-0.8-0.2-1-0.3-0.9-1-2 0.5-0.8 0.5-1 0.4-1.1 0.1-1.3-0.6-0.2-0.6 0.1-0.5 0-0.4-0.4-0.2-0.7 0.1-0.7 0.3-0.6 0.9-0.4 0-0.6-1.6-0.8-0.9-1.5-0.5-2.1-0.1-3.7 0.9-0.6 1-0.6 0.8-0.2 3.8-0.5 0.7-0.4 0.9-0.4 0.8-0.3 0.9-0.1 0.8 0 0.8 0.4 1.2 1.4 0.6 0.3 0.6 0.1 0.7 0.9 0.4 0.1 1.3-0.2 0.7 0.1 0.4 0.1 0.5-0.1 0.4-0.1 1.2-0.6 0.3 0 0.2 0.3 1.6 2.6 0.2 0.5 0.2 0.3 0.4-0.1 1.1-0.2 2.6 0.3 0.9 0.4 1.1 0.5 0.5 0.4 0.5 0.5 0.2 0.6 0.3 0.6 0.6 0.5 1.6 1.4 0.6 1 1.6 1.1 0.8 1.1-1 0.4-0.7-0.4-0.4-0.5-0.5-0.1-0.4 0.6-0.1 0.9 0.1 0.9 0.4 0.6 0 0.5-2 1.8-1.2 0.5-0.1 0.1-0.3 0.2 0 0.6 0.1 0.6-0.1 0.4-0.6 0.5-1.2 0.2-0.7 0.5-0.7 0.8-0.1 0.8 0 0.8-0.2 1.1-0.5 1.1-0.2-0.1-0.3-0.6-0.6-0.4-0.6 0-0.1-0.1 0.2 0.3 0 1 0.1 0.6 0.2 0.5-0.1 0.6-0.7 0.6-0.8 0.4-0.6 0-1.7-0.4 0.8 1.2 2 1.5 0.8 1 0 0.8-0.2 3.9 0.5 0.6 0.2 1.3 0 2.5 0.4 1 1.4 1.9 0.8 1.5-1.2-0.7-0.9-0.5-1.8-1.5-0.9-0.4-1-0.9-0.6-0.2-0.6 0.2-1.1 0.8-0.6 0.3-1.5-0.1-1.3-0.4-0.9-0.9-0.4-1.3-0.1-1.9-0.2-0.9-0.5-0.4-0.1-0.2-0.8-0.4-0.9-0.3-0.7-0.3-0.2 0-0.5-1.2-0.1-0.9 0-1-0.1-0.7-0.6-0.4-2-0.5-2.3 1.7-1.4-0.6z" id="EGMNF" name="Al Minufiyah">
  </path>
  <path d="M534.2 133.3l2.2 0.8 1 0.7 1 0 1-0.3 0.6-0.4 1.6 0.4-1.6 1.5-1.9 1.4-0.9 1.1-0.4 0.9-0.1 1.5-0.9 3.1-0.2 2.4 0.6 0.6 1.2 1 0.8 1.6 0.5 0.8 0.7 0.6 0.8 0.9 0.7 1.2 0.5 2.1 0.7 1.4 0.6 1.7 0.6 0.8 0.8 0.8 15.5 7.7-11.5 0.5-3.6 0.7-1.7 0.8-0.4 0.3-0.9 0.4-0.5 0.1-0.3-0.1-0.3-0.2-0.5-0.2-0.3-0.1-0.2 0.1-0.1 0.1-0.1 0.3-0.1 0.7-0.2 0.4-0.1 0.2-0.2 0.3-0.2 0.1-0.3 0.2-5.1 1.9 0-0.8-0.2-0.8-0.4-0.6-0.8-0.5-2.9-0.3-0.9-0.5-1.6-1.7-0.8-1.5-1.4-1.9-0.4-1 0-2.5-0.2-1.3-0.5-0.6 0.2-3.9 0-0.8-0.8-1-2-1.5-0.8-1.2 1.7 0.4 0.6 0 0.8-0.4 0.7-0.6 0.1-0.6-0.2-0.5-0.1-0.6 0-1-0.2-0.3 0.1 0.1 0.6 0 0.6 0.4 0.3 0.6 0.2 0.1 0.5-1.1 0.2-1.1 0-0.8 0.1-0.8 0.7-0.8 0.7-0.5 1.2-0.2 0.6-0.5 0.1-0.4-0.1-0.6 0-0.6 0.3-0.2 0.1-0.1 1.2-0.5 2-1.8 0-0.5-0.4-0.6-0.1-0.9 0.1-0.9 0.4-0.6 0.5 0.1 0.4 0.5 0.7 0.4 1-0.4-0.8-1.1 0.1-2z" id="EGKB" name="Al Qalyubiyah">
  </path>
  <path d="M533.9 88l-0.5-0.1-0.2-0.2-0.2-0.1-0.1 0.2-0.5 4.1-0.7 2.3-0.1 0.7 0.4 0.5 0.4 0.2 0.5 0.1 0.7 0.3 0.2 0.1 0.8-0.3 0.6-0.4 0.8-0.2 0.7-0.1 0.7-0.4 0.4 0.1 0.3 0.2-0.1 0.5 0.1 0.6-0.5 2.5-0.1 0.4-0.9 0.5-0.8 0.1-0.8 0.3-0.6 0.8-0.2 1.1 0.3 0.7 0.3 0.7 0.1 1.1-0.5 0.7-0.8 0.7-0.2 0.6 1 1-0.4 0.1-0.3 0.2-0.3 0.2-0.6 0.1 0.5 0.3 0.5 0.4 0.4 0.4 0.2 0.4-0.1 0.9-0.1 0.2-0.4 0.1-0.5 0.3-1.6 0.5-0.4 0.3 0.2 0.7 0.3 0.6 0.7 0.7 0.3 3.7 0.5 2.1 0.2 0.3 0.4 0 0.3 0.2 0.2 0.7 0.2 2.3 0.9 4-0.1 2.3-1.2 4-0.1 2-1.6-1.1-0.6-1-1.6-1.4-0.6-0.5-0.3-0.6-0.2-0.6-0.5-0.5-0.5-0.4-1.1-0.5-0.9-0.4-2.6-0.3-1.1 0.2-0.4 0.1-0.2-0.3-0.2-0.5-1.6-2.6-0.2-0.3-0.3 0-1.2 0.6-0.4 0.1-0.5 0.1-0.4-0.1-0.7-0.1-1.3 0.2-0.4-0.1-0.7-0.9-0.6-0.1-0.6-0.3-1.2-1.4-0.8-0.4-0.8 0-0.9 0.1-0.8 0.3-0.9 0.4-0.7 0.4-3.8 0.5-0.8 0.2-1 0.6-0.9 0.6-0.2-1.2-0.4-1-0.7-0.3-0.3-0.6 0.5-1.2 0.7-1.2 0.4-0.3-0.3-1.4-0.8 0-1 0.3-1-0.4-0.1-0.9 0.5-1.2 0.8-1 0.4-0.5 1.9-0.5 1-0.5 0.1-0.8-0.7-0.5-1.1 0-2.3 0.5 1.8-1.2 0.3-0.5 0.2-0.9 0.1-1-0.3-0.8-0.8-0.3-1.6-0.4 0.2-0.9 1-1.2 0.6-1.1-0.3-1.4-1.8-2.8-0.1-0.5 0.9-0.6 0.6-1.7 0.6-0.1 0.5 0.2 0.2 0.1 4.4 1.6 0.9-0.2 1.3-0.5 1.1-0.1 1.1 0.1 0.6-0.2 0.2-0.2-0.1-0.3 0.1-0.1 0.2-0.2 0.9-0.5 0.7-0.4 0.7-0.2 5.3-0.4 1.2-0.5 0.7-0.8 0.4-1.7 0.3-0.7 0.3-0.7 0-0.5-0.1-1.5 0-0.9 0.1-0.8 0.6-0.7 4 0.2 1.7 0.7 0.8 0 1.6-1.5 0.8-0.4 0.9-0.1 0.8 0.1 0.7 0.2 0.4 0.3 1.6 1.4z" id="EGGH" name="Al Gharbiyah">
  </path>
  <path d="M561.4 452.1l12.5 8.8 3.3 3.2 1.2 2.7 1.7 3 2 2.7 0.7 1.5 0.4 1.3 0.4 3.7 0.2 0.9 1.1 2.3 1.8 2.7 1.2 1.5 1 1.2 1.4 0.9 1.9 1 2.2 0.9 4.9 1.1 0.9 0.3 1.2 0.8 0.7 1 0.7 0.9 2 3.8 7.9 10-2 2.1-0.8 0.1-1 0-1.8-1-1.6-1.3-1.5-1.7-2.1-3.6-1-1-0.9-0.1-0.8 0.3-0.4 0.4-1.7 2.1-0.9 0.6-1.2 0.4-4.2 0.5-0.8 0.4-0.8 0.6-2.9 2.7-31.2-39.1-7.1-6.1-10.3-12.8 6.9-3.8 0.9-0.7 0.7-0.7 0.5-0.6 0.4-0.9 0.8-1 0.6-0.6 0.4-0.3 0.8 0 1 0.4 1.3 1.2 0.6 0.8 0.5 0.9 1.2 2.7 0.6 1 0.8 0.9 0.8 0.7 1.1 0.4 0.9 0.3 2.9-0.4z" id="EGSHG" name="Suhaj">
  </path>
  <path d="M642.3 581.7l-0.6 1.9 0 4.4-0.2 1.1-0.4 0.8-0.7 0.5-0.6 0.4-1.3 1.1-7.1-5.4-1.5-1.7-0.7-1.1-0.7-1.2-1.2-3-1.9-11.8-2.6-10-0.1-1.3 0.1-1.7 0.2-0.9 0.3-0.8 1.1-1.6 2.2-2.3 10.3-8.1 1.4-1.6 0.5-0.9 0.5-0.8 0.3-0.8 0.5-1.9 0.6-3.9 0.3-1 0.4-0.9 3.1-5.4 0.7-1.7 0.3-0.8 0.2-1.1 0-1.7-0.3-1.7-0.3-0.9-0.5-0.9-0.7-0.8-0.7-0.7-0.8-0.5-0.8-0.4-1-0.2-1.3 0-3.4 0.4-2 0.5-17.2 8.1-6.6 1.9-3.6 0.6-2.1-0.1-1.4-0.3-1.1-0.4-1.8-0.8-1.3-0.8-0.7-0.6-11.8-11.1 2.9-2.7 0.8-0.6 0.8-0.4 4.2-0.5 1.2-0.4 0.9-0.6 1.7-2.1 0.4-0.4 0.8-0.3 0.9 0.1 1 1 2.1 3.6 1.5 1.7 1.6 1.3 1.8 1 1 0 0.8-0.1 2-2.1 2.3-0.5 15-7.3 3.9-0.7 2.1-0.2 4.8 0.3 5.8 1.7 1.4 0.8 1.8 1.3 2.6 2.4 2.9 3.9 1.1 1.9 0.8 1.9 1 3.9 0.8 6.1 0.1 2.9-0.1 2-0.4 2.2-0.7 2.2-3.8 7.9-1.4 1.9-1.6 1.9-7.2 6.5-4.9 5.5-1.1 1.6-0.8 1.7-0.9 2.7-0.2 1.2 0.2 4.4 1.3 6.1 0.8 2.4 0.9 1.7 0.7 0.9 2.4 2.2z m-4-34.1l0.5-1.3 0.8-1.2 0-0.6-1.4-0.8-1.9 3.6 0.9 0.2 1.1 0.1z" id="EGKN" name="Qina">
  </path>
  <path d="M511 386.2l-0.3 7.5 0.1 2.4 0.3 1.2 0.7 2.3 0.5 1.1 0.5 1 0.7 0.8 0.7 0.7 6.5 3.8 7.6 3.2 4.7 1.5 1 0.5 1.2 0.8 1.6 1.5 0.9 1.2 0.7 1.2 1.2 3.4 0.6 1.2 0.5 0.8 0.5 0.5 1.8 1 3 2.6 4.7 4.8 1.1 1.3 1.7 2.9 7.9 16.7-2.9 0.4-0.9-0.3-1.1-0.4-0.8-0.7-0.8-0.9-0.6-1-1.2-2.7-0.5-0.9-0.6-0.8-1.3-1.2-1-0.4-0.8 0-0.4 0.3-0.6 0.6-0.8 1-0.4 0.9-0.5 0.6-0.7 0.7-0.9 0.7-6.9 3.8-9.4-19-0.9-1.3-3.5-3.8-1.4-1.2-1.2-0.8-6.8-2.8-3.7-2.2-9.8-9.3-1.2-1.4-1.3-1.9-6.9-14.8-0.8-2.7-0.2-2.3 0.3-3.2 2 0.8 1.4 0 2.4-0.5 0.7-0.1 0.5 0 4.3 1.8 0.8 0.1 8-1z" id="EGAST" name="Asyut">
  </path>
  <path d="M638.3 547.6l-1.1-0.1-0.9-0.2 1.9-3.6 1.4 0.8 0 0.6-0.8 1.2-0.5 1.3z" id="EGLX" name="Luxor">
  </path>
 </g>
 <g id="points">
  <circle class="22.477474712019966|25.298884621863525" cx="90.9" cy="809.1" id="0">
  </circle>
  <circle class="26.342319125351576|31.404303521235196" cx="545.5" cy="493" id="1">
  </circle>
  <circle class="31.17337464201609|36.28863864073253" cx="909.1" cy="82.5" id="2">
  </circle>
 </g>
 <g id="label_points">
  <circle class="Shamal Sina'" cx="719.4" cy="142.2" id="EGSIN">
  </circle>
  <circle class="Aswan" cx="658.2" cy="718.5" id="EGASN">
  </circle>
  <circle class="Al Bahr al Ahmar" cx="729.1" cy="595.1" id="EGBA">
  </circle>
  <circle class="Matruh" cx="189.7" cy="206.3" id="EGMT">
  </circle>
  <circle class="Al Wadi at Jadid" cx="335.3" cy="617.7" id="EGWAD">
  </circle>
  <circle class="As Suways" cx="603.1" cy="195.8" id="EGSUZ">
  </circle>
  <circle class="Janub Sina'" cx="729.6" cy="268.2" id="EGJS">
  </circle>
  <circle class="Bur Sa`id" cx="620.9" cy="86.8" id="EGPTS">
  </circle>
  <circle class="Ad Daqahliyah" cx="551" cy="94.4" id="EGDK">
  </circle>
  <circle class="Ash Sharqiyah" cx="580.7" cy="115.9" id="EGSHR">
  </circle>
  <circle class="Al Isma`iliyah" cx="615.8" cy="136.9" id="EGIS">
  </circle>
  <circle class="Dumyat" cx="569.4" cy="63.6" id="EGDT">
  </circle>
  <circle class="Kafr ash Shaykh" cx="505.8" cy="79.2" id="EGKFS">
  </circle>
  <circle class="Al Buhayrah" cx="470.2" cy="136.9" id="EGBH">
  </circle>
  <circle class="Al Iskandariyah" cx="424.2" cy="119.3" id="EGALX">
  </circle>
  <circle class="Al Qahirah" cx="560.1" cy="185.5" id="EGC">
  </circle>
  <circle class="Al Jizah" cx="387.1" cy="296.6" id="EGGZ">
  </circle>
  <circle class="Al Minya" cx="452" cy="335.9" id="EGMN">
  </circle>
  <circle class="Al Fayyum" cx="482.4" cy="241.1" id="EGFYM">
  </circle>
  <circle class="Bani Suwayf" cx="502.5" cy="275.7" id="EGBNS">
  </circle>
  <circle class="Al Minufiyah" cx="515.2" cy="139.1" id="EGMNF">
  </circle>
  <circle class="Al Qalyubiyah" cx="532.8" cy="159.5" id="EGKB">
  </circle>
  <circle class="Al Gharbiyah" cx="518.5" cy="110.2" id="EGGH">
  </circle>
  <circle class="Suhaj" cx="572.4" cy="476.1" id="EGSHG">
  </circle>
  <circle class="Qina" cx="631.5" cy="554.9" id="EGKN">
  </circle>
  <circle class="Asyut" cx="523.5" cy="417.7" id="EGAST">
  </circle>
  <circle class="Luxor" cx="638.1" cy="545.8" id="EGLX">
  </circle>
 </g>
</svg>